# xmcd
# Copyright (C) 1995-1998 Ti Kan
#
# Track frame offsets:
#       150
#       20029
#       36004
#       55503
#       78010
#       95158
#       116688
#       137026
#       158032
#       177166
#
# Disc length: 2672 seconds
#
# Revision: 0
# Processed by: cddbd v1.5.2PL0 Copyright (c) Steve Scherf et al.
# Submitted via: CD-Import v1.0
#
DISCID=770a6e0a
DTITLE=Her Space Holiday - The Young Machines
DYEAR=2003
DGENRE=
TTITLE0=Young Machines
TTITLE1=Something To Do With My Hands
TTITLE2=Tech Romance
TTITLE3=Sleepy California
TTITLE4=Japanese Gum
TTITLE5=Meet The Pressure
TTITLE6=My Girlfriend's Boyfriend
TTITLE7=Luxury Of Loneliness
TTITLE8=Girl Problem
TTITLE9=From South Carolina
EXTD=
EXTT0=
EXTT1=
EXTT2=
EXTT3=
EXTT4=
EXTT5=
EXTT6=
EXTT7=
EXTT8=
EXTT9=
PLAYORDER=
